ISO-10303-21;
HEADER;
/* Generated by software containing ST-Developer
 * from STEP Tools, Inc. (www.steptools.com) 
 */

FILE_DESCRIPTION(
/* description */ (''),
/* implementation_level */ '2;1');

FILE_NAME(
/* name */ 'Drawer.step',
/* time_stamp */ '2026-08-18T22:17:14+01:00',
/* author */ (''),
/* organization */ (''),
/* preprocessor_version */ 'ST-DEVELOPER v20.1',
/* originating_system */ 'Autodesk Translation Framework v15.8.0.0',
/* authorisation */ '');

FILE_SCHEMA (('AUTOMOTIVE_DESIGN { 1 0 10303 214 3 1 1 }'));
ENDSEC;

DATA;
#10=MECHANICAL_DESIGN_GEOMETRIC_PRESENTATION_REPRESENTATION('',(#13),#727);
#11=SHAPE_REPRESENTATION_RELATIONSHIP('SRR','None',#734,#12);
#12=ADVANCED_BREP_SHAPE_REPRESENTATION('',(#14),#726);
#13=STYLED_ITEM('',(#743),#14);
#14=MANIFOLD_SOLID_BREP('Body1',#435);
#15=B_SPLINE_SURFACE_WITH_KNOTS('',3,1,((#701,#702),(#703,#704),(#705,#706),
(#707,#708)),.UNSPECIFIED.,.F.,.F.,.F.,(4,4),(2,2),(0.,0.50180315347752),
(0.,0.49),.UNSPECIFIED.);
#16=B_SPLINE_SURFACE_WITH_KNOTS('',3,1,((#716,#717),(#718,#719),(#720,#721),
(#722,#723)),.UNSPECIFIED.,.F.,.F.,.F.,(4,4),(2,2),(0.050313092515511,0.55205847639604),
(0.,0.49),.UNSPECIFIED.);
#17=FACE_BOUND('',#66,.T.);
#18=FACE_BOUND('',#70,.T.);
#19=B_SPLINE_CURVE_WITH_KNOTS('',3,(#617,#618,#619,#620),.UNSPECIFIED.,
 .F.,.F.,(4,4),(0.0603703942878139,0.55205847639604),.UNSPECIFIED.);
#20=B_SPLINE_CURVE_WITH_KNOTS('',3,(#633,#634,#635,#636),.UNSPECIFIED.,
 .F.,.F.,(4,4),(0.,0.491744693766902),.UNSPECIFIED.);
#21=B_SPLINE_CURVE_WITH_KNOTS('',3,(#660,#661,#662,#663),.UNSPECIFIED.,
 .F.,.F.,(4,4),(0.,0.491744693734886),.UNSPECIFIED.);
#22=B_SPLINE_CURVE_WITH_KNOTS('',3,(#676,#677,#678,#679),.UNSPECIFIED.,
 .F.,.F.,(4,4),(0.0603703942558014,0.55205847639604),.UNSPECIFIED.);
#23=B_SPLINE_CURVE_WITH_KNOTS('',3,(#695,#696,#697,#698,#699,#700),
 .UNSPECIFIED.,.F.,.F.,(4,2,4),(-0.49,-0.245,0.),.UNSPECIFIED.);
#24=B_SPLINE_CURVE_WITH_KNOTS('',3,(#710,#711,#712,#713,#714,#715),
 .UNSPECIFIED.,.F.,.F.,(4,2,4),(-0.49,-0.245,0.),.UNSPECIFIED.);
#25=FACE_OUTER_BOUND('',#49,.T.);
#26=FACE_OUTER_BOUND('',#50,.T.);
#27=FACE_OUTER_BOUND('',#51,.T.);
#28=FACE_OUTER_BOUND('',#52,.T.);
#29=FACE_OUTER_BOUND('',#53,.T.);
#30=FACE_OUTER_BOUND('',#54,.T.);
#31=FACE_OUTER_BOUND('',#55,.T.);
#32=FACE_OUTER_BOUND('',#56,.T.);
#33=FACE_OUTER_BOUND('',#57,.T.);
#34=FACE_OUTER_BOUND('',#58,.T.);
#35=FACE_OUTER_BOUND('',#59,.T.);
#36=FACE_OUTER_BOUND('',#60,.T.);
#37=FACE_OUTER_BOUND('',#61,.T.);
#38=FACE_OUTER_BOUND('',#62,.T.);
#39=FACE_OUTER_BOUND('',#63,.T.);
#40=FACE_OUTER_BOUND('',#64,.T.);
#41=FACE_OUTER_BOUND('',#65,.T.);
#42=FACE_OUTER_BOUND('',#67,.T.);
#43=FACE_OUTER_BOUND('',#68,.T.);
#44=FACE_OUTER_BOUND('',#69,.T.);
#45=FACE_OUTER_BOUND('',#71,.T.);
#46=FACE_OUTER_BOUND('',#72,.T.);
#47=FACE_OUTER_BOUND('',#73,.T.);
#48=FACE_OUTER_BOUND('',#74,.T.);
#49=EDGE_LOOP('',(#273,#274,#275,#276));
#50=EDGE_LOOP('',(#277,#278,#279,#280));
#51=EDGE_LOOP('',(#281,#282,#283,#284));
#52=EDGE_LOOP('',(#285,#286,#287,#288));
#53=EDGE_LOOP('',(#289,#290,#291,#292));
#54=EDGE_LOOP('',(#293,#294,#295,#296));
#55=EDGE_LOOP('',(#297,#298,#299,#300));
#56=EDGE_LOOP('',(#301,#302,#303,#304,#305));
#57=EDGE_LOOP('',(#306,#307,#308,#309,#310));
#58=EDGE_LOOP('',(#311,#312,#313,#314));
#59=EDGE_LOOP('',(#315,#316,#317,#318));
#60=EDGE_LOOP('',(#319,#320,#321,#322));
#61=EDGE_LOOP('',(#323,#324,#325,#326,#327));
#62=EDGE_LOOP('',(#328,#329,#330,#331,#332));
#63=EDGE_LOOP('',(#333,#334,#335,#336));
#64=EDGE_LOOP('',(#337,#338,#339,#340));
#65=EDGE_LOOP('',(#341,#342,#343,#344,#345,#346,#347,#348));
#66=EDGE_LOOP('',(#349,#350,#351,#352));
#67=EDGE_LOOP('',(#353,#354,#355,#356));
#68=EDGE_LOOP('',(#357,#358,#359,#360));
#69=EDGE_LOOP('',(#361,#362,#363,#364,#365,#366,#367,#368));
#70=EDGE_LOOP('',(#369,#370,#371,#372));
#71=EDGE_LOOP('',(#373,#374,#375,#376));
#72=EDGE_LOOP('',(#377,#378,#379,#380));
#73=EDGE_LOOP('',(#381,#382,#383,#384));
#74=EDGE_LOOP('',(#385,#386,#387,#388));
#75=LINE('',#573,#127);
#76=LINE('',#575,#128);
#77=LINE('',#577,#129);
#78=LINE('',#578,#130);
#79=LINE('',#581,#131);
#80=LINE('',#583,#132);
#81=LINE('',#584,#133);
#82=LINE('',#587,#134);
#83=LINE('',#589,#135);
#84=LINE('',#590,#136);
#85=LINE('',#592,#137);
#86=LINE('',#593,#138);
#87=LINE('',#597,#139);
#88=LINE('',#599,#140);
#89=LINE('',#601,#141);
#90=LINE('',#602,#142);
#91=LINE('',#606,#143);
#92=LINE('',#608,#144);
#93=LINE('',#610,#145);
#94=LINE('',#611,#146);
#95=LINE('',#613,#147);
#96=LINE('',#614,#148);
#97=LINE('',#622,#149);
#98=LINE('',#624,#150);
#99=LINE('',#625,#151);
#100=LINE('',#628,#152);
#101=LINE('',#630,#153);
#102=LINE('',#632,#154);
#103=LINE('',#640,#155);
#104=LINE('',#642,#156);
#105=LINE('',#644,#157);
#106=LINE('',#645,#158);
#107=LINE('',#649,#159);
#108=LINE('',#651,#160);
#109=LINE('',#653,#161);
#110=LINE('',#654,#162);
#111=LINE('',#656,#163);
#112=LINE('',#657,#164);
#113=LINE('',#665,#165);
#114=LINE('',#667,#166);
#115=LINE('',#668,#167);
#116=LINE('',#671,#168);
#117=LINE('',#673,#169);
#118=LINE('',#675,#170);
#119=LINE('',#681,#171);
#120=LINE('',#682,#172);
#121=LINE('',#684,#173);
#122=LINE('',#685,#174);
#123=LINE('',#688,#175);
#124=LINE('',#690,#176);
#125=LINE('',#692,#177);
#126=LINE('',#693,#178);
#127=VECTOR('',#475,10.);
#128=VECTOR('',#476,10.);
#129=VECTOR('',#477,10.);
#130=VECTOR('',#478,10.);
#131=VECTOR('',#481,10.);
#132=VECTOR('',#482,10.);
#133=VECTOR('',#483,10.);
#134=VECTOR('',#486,10.);
#135=VECTOR('',#487,10.);
#136=VECTOR('',#488,10.);
#137=VECTOR('',#491,10.);
#138=VECTOR('',#492,10.);
#139=VECTOR('',#495,10.);
#140=VECTOR('',#496,10.);
#141=VECTOR('',#497,10.);
#142=VECTOR('',#498,10.);
#143=VECTOR('',#501,10.);
#144=VECTOR('',#502,10.);
#145=VECTOR('',#503,10.);
#146=VECTOR('',#504,10.);
#147=VECTOR('',#507,10.);
#148=VECTOR('',#508,10.);
#149=VECTOR('',#511,10.);
#150=VECTOR('',#512,10.);
#151=VECTOR('',#513,10.);
#152=VECTOR('',#516,10.);
#153=VECTOR('',#517,10.);
#154=VECTOR('',#518,10.);
#155=VECTOR('',#521,10.);
#156=VECTOR('',#522,10.);
#157=VECTOR('',#523,10.);
#158=VECTOR('',#524,10.);
#159=VECTOR('',#527,10.);
#160=VECTOR('',#528,10.);
#161=VECTOR('',#529,10.);
#162=VECTOR('',#530,10.);
#163=VECTOR('',#533,10.);
#164=VECTOR('',#534,10.);
#165=VECTOR('',#537,10.);
#166=VECTOR('',#538,10.);
#167=VECTOR('',#539,10.);
#168=VECTOR('',#542,10.);
#169=VECTOR('',#543,10.);
#170=VECTOR('',#544,10.);
#171=VECTOR('',#547,10.);
#172=VECTOR('',#548,10.);
#173=VECTOR('',#551,10.);
#174=VECTOR('',#552,10.);
#175=VECTOR('',#557,10.);
#176=VECTOR('',#560,10.);
#177=VECTOR('',#563,10.);
#178=VECTOR('',#564,10.);
#179=VERTEX_POINT('',#571);
#180=VERTEX_POINT('',#572);
#181=VERTEX_POINT('',#574);
#182=VERTEX_POINT('',#576);
#183=VERTEX_POINT('',#580);
#184=VERTEX_POINT('',#582);
#185=VERTEX_POINT('',#586);
#186=VERTEX_POINT('',#588);
#187=VERTEX_POINT('',#595);
#188=VERTEX_POINT('',#596);
#189=VERTEX_POINT('',#598);
#190=VERTEX_POINT('',#600);
#191=VERTEX_POINT('',#604);
#192=VERTEX_POINT('',#605);
#193=VERTEX_POINT('',#607);
#194=VERTEX_POINT('',#609);
#195=VERTEX_POINT('',#616);
#196=VERTEX_POINT('',#621);
#197=VERTEX_POINT('',#623);
#198=VERTEX_POINT('',#627);
#199=VERTEX_POINT('',#629);
#200=VERTEX_POINT('',#631);
#201=VERTEX_POINT('',#638);
#202=VERTEX_POINT('',#639);
#203=VERTEX_POINT('',#641);
#204=VERTEX_POINT('',#643);
#205=VERTEX_POINT('',#647);
#206=VERTEX_POINT('',#648);
#207=VERTEX_POINT('',#650);
#208=VERTEX_POINT('',#652);
#209=VERTEX_POINT('',#659);
#210=VERTEX_POINT('',#664);
#211=VERTEX_POINT('',#666);
#212=VERTEX_POINT('',#670);
#213=VERTEX_POINT('',#672);
#214=VERTEX_POINT('',#674);
#215=EDGE_CURVE('',#179,#180,#75,.T.);
#216=EDGE_CURVE('',#181,#179,#76,.T.);
#217=EDGE_CURVE('',#182,#181,#77,.T.);
#218=EDGE_CURVE('',#182,#180,#78,.T.);
#219=EDGE_CURVE('',#180,#183,#79,.T.);
#220=EDGE_CURVE('',#184,#182,#80,.T.);
#221=EDGE_CURVE('',#184,#183,#81,.T.);
#222=EDGE_CURVE('',#183,#185,#82,.T.);
#223=EDGE_CURVE('',#186,#184,#83,.T.);
#224=EDGE_CURVE('',#186,#185,#84,.T.);
#225=EDGE_CURVE('',#185,#179,#85,.T.);
#226=EDGE_CURVE('',#181,#186,#86,.T.);
#227=EDGE_CURVE('',#187,#188,#87,.T.);
#228=EDGE_CURVE('',#187,#189,#88,.T.);
#229=EDGE_CURVE('',#190,#189,#89,.T.);
#230=EDGE_CURVE('',#188,#190,#90,.T.);
#231=EDGE_CURVE('',#191,#192,#91,.T.);
#232=EDGE_CURVE('',#191,#193,#92,.T.);
#233=EDGE_CURVE('',#194,#193,#93,.T.);
#234=EDGE_CURVE('',#192,#194,#94,.T.);
#235=EDGE_CURVE('',#189,#194,#95,.T.);
#236=EDGE_CURVE('',#193,#190,#96,.T.);
#237=EDGE_CURVE('',#195,#188,#19,.T.);
#238=EDGE_CURVE('',#195,#196,#97,.T.);
#239=EDGE_CURVE('',#197,#196,#98,.T.);
#240=EDGE_CURVE('',#197,#187,#99,.T.);
#241=EDGE_CURVE('',#192,#198,#100,.T.);
#242=EDGE_CURVE('',#199,#198,#101,.T.);
#243=EDGE_CURVE('',#199,#200,#102,.T.);
#244=EDGE_CURVE('',#191,#200,#20,.T.);
#245=EDGE_CURVE('',#201,#202,#103,.T.);
#246=EDGE_CURVE('',#201,#203,#104,.T.);
#247=EDGE_CURVE('',#204,#203,#105,.T.);
#248=EDGE_CURVE('',#202,#204,#106,.T.);
#249=EDGE_CURVE('',#205,#206,#107,.T.);
#250=EDGE_CURVE('',#205,#207,#108,.T.);
#251=EDGE_CURVE('',#208,#207,#109,.T.);
#252=EDGE_CURVE('',#206,#208,#110,.T.);
#253=EDGE_CURVE('',#207,#204,#111,.T.);
#254=EDGE_CURVE('',#203,#208,#112,.T.);
#255=EDGE_CURVE('',#202,#209,#21,.T.);
#256=EDGE_CURVE('',#209,#210,#113,.T.);
#257=EDGE_CURVE('',#210,#211,#114,.T.);
#258=EDGE_CURVE('',#211,#201,#115,.T.);
#259=EDGE_CURVE('',#206,#212,#116,.T.);
#260=EDGE_CURVE('',#212,#213,#117,.T.);
#261=EDGE_CURVE('',#213,#214,#118,.T.);
#262=EDGE_CURVE('',#214,#205,#22,.T.);
#263=EDGE_CURVE('',#212,#197,#119,.T.);
#264=EDGE_CURVE('',#206,#187,#120,.T.);
#265=EDGE_CURVE('',#198,#211,#121,.T.);
#266=EDGE_CURVE('',#192,#201,#122,.T.);
#267=EDGE_CURVE('',#210,#199,#123,.T.);
#268=EDGE_CURVE('',#196,#213,#124,.T.);
#269=EDGE_CURVE('',#188,#205,#125,.T.);
#270=EDGE_CURVE('',#191,#202,#126,.T.);
#271=EDGE_CURVE('',#200,#209,#23,.T.);
#272=EDGE_CURVE('',#214,#195,#24,.T.);
#273=ORIENTED_EDGE('',*,*,#215,.F.);
#274=ORIENTED_EDGE('',*,*,#216,.F.);
#275=ORIENTED_EDGE('',*,*,#217,.F.);
#276=ORIENTED_EDGE('',*,*,#218,.T.);
#277=ORIENTED_EDGE('',*,*,#219,.F.);
#278=ORIENTED_EDGE('',*,*,#218,.F.);
#279=ORIENTED_EDGE('',*,*,#220,.F.);
#280=ORIENTED_EDGE('',*,*,#221,.T.);
#281=ORIENTED_EDGE('',*,*,#222,.F.);
#282=ORIENTED_EDGE('',*,*,#221,.F.);
#283=ORIENTED_EDGE('',*,*,#223,.F.);
#284=ORIENTED_EDGE('',*,*,#224,.T.);
#285=ORIENTED_EDGE('',*,*,#225,.F.);
#286=ORIENTED_EDGE('',*,*,#224,.F.);
#287=ORIENTED_EDGE('',*,*,#226,.F.);
#288=ORIENTED_EDGE('',*,*,#216,.T.);
#289=ORIENTED_EDGE('',*,*,#227,.F.);
#290=ORIENTED_EDGE('',*,*,#228,.T.);
#291=ORIENTED_EDGE('',*,*,#229,.F.);
#292=ORIENTED_EDGE('',*,*,#230,.F.);
#293=ORIENTED_EDGE('',*,*,#231,.F.);
#294=ORIENTED_EDGE('',*,*,#232,.T.);
#295=ORIENTED_EDGE('',*,*,#233,.F.);
#296=ORIENTED_EDGE('',*,*,#234,.F.);
#297=ORIENTED_EDGE('',*,*,#235,.T.);
#298=ORIENTED_EDGE('',*,*,#233,.T.);
#299=ORIENTED_EDGE('',*,*,#236,.T.);
#300=ORIENTED_EDGE('',*,*,#229,.T.);
#301=ORIENTED_EDGE('',*,*,#227,.T.);
#302=ORIENTED_EDGE('',*,*,#237,.F.);
#303=ORIENTED_EDGE('',*,*,#238,.T.);
#304=ORIENTED_EDGE('',*,*,#239,.F.);
#305=ORIENTED_EDGE('',*,*,#240,.T.);
#306=ORIENTED_EDGE('',*,*,#231,.T.);
#307=ORIENTED_EDGE('',*,*,#241,.T.);
#308=ORIENTED_EDGE('',*,*,#242,.F.);
#309=ORIENTED_EDGE('',*,*,#243,.T.);
#310=ORIENTED_EDGE('',*,*,#244,.F.);
#311=ORIENTED_EDGE('',*,*,#245,.F.);
#312=ORIENTED_EDGE('',*,*,#246,.T.);
#313=ORIENTED_EDGE('',*,*,#247,.F.);
#314=ORIENTED_EDGE('',*,*,#248,.F.);
#315=ORIENTED_EDGE('',*,*,#249,.F.);
#316=ORIENTED_EDGE('',*,*,#250,.T.);
#317=ORIENTED_EDGE('',*,*,#251,.F.);
#318=ORIENTED_EDGE('',*,*,#252,.F.);
#319=ORIENTED_EDGE('',*,*,#251,.T.);
#320=ORIENTED_EDGE('',*,*,#253,.T.);
#321=ORIENTED_EDGE('',*,*,#247,.T.);
#322=ORIENTED_EDGE('',*,*,#254,.T.);
#323=ORIENTED_EDGE('',*,*,#245,.T.);
#324=ORIENTED_EDGE('',*,*,#255,.T.);
#325=ORIENTED_EDGE('',*,*,#256,.T.);
#326=ORIENTED_EDGE('',*,*,#257,.T.);
#327=ORIENTED_EDGE('',*,*,#258,.T.);
#328=ORIENTED_EDGE('',*,*,#249,.T.);
#329=ORIENTED_EDGE('',*,*,#259,.T.);
#330=ORIENTED_EDGE('',*,*,#260,.T.);
#331=ORIENTED_EDGE('',*,*,#261,.T.);
#332=ORIENTED_EDGE('',*,*,#262,.T.);
#333=ORIENTED_EDGE('',*,*,#263,.F.);
#334=ORIENTED_EDGE('',*,*,#259,.F.);
#335=ORIENTED_EDGE('',*,*,#264,.T.);
#336=ORIENTED_EDGE('',*,*,#240,.F.);
#337=ORIENTED_EDGE('',*,*,#265,.F.);
#338=ORIENTED_EDGE('',*,*,#241,.F.);
#339=ORIENTED_EDGE('',*,*,#266,.T.);
#340=ORIENTED_EDGE('',*,*,#258,.F.);
#341=ORIENTED_EDGE('',*,*,#264,.F.);
#342=ORIENTED_EDGE('',*,*,#252,.T.);
#343=ORIENTED_EDGE('',*,*,#254,.F.);
#344=ORIENTED_EDGE('',*,*,#246,.F.);
#345=ORIENTED_EDGE('',*,*,#266,.F.);
#346=ORIENTED_EDGE('',*,*,#234,.T.);
#347=ORIENTED_EDGE('',*,*,#235,.F.);
#348=ORIENTED_EDGE('',*,*,#228,.F.);
#349=ORIENTED_EDGE('',*,*,#222,.T.);
#350=ORIENTED_EDGE('',*,*,#225,.T.);
#351=ORIENTED_EDGE('',*,*,#215,.T.);
#352=ORIENTED_EDGE('',*,*,#219,.T.);
#353=ORIENTED_EDGE('',*,*,#265,.T.);
#354=ORIENTED_EDGE('',*,*,#257,.F.);
#355=ORIENTED_EDGE('',*,*,#267,.T.);
#356=ORIENTED_EDGE('',*,*,#242,.T.);
#357=ORIENTED_EDGE('',*,*,#263,.T.);
#358=ORIENTED_EDGE('',*,*,#239,.T.);
#359=ORIENTED_EDGE('',*,*,#268,.T.);
#360=ORIENTED_EDGE('',*,*,#260,.F.);
#361=ORIENTED_EDGE('',*,*,#269,.F.);
#362=ORIENTED_EDGE('',*,*,#230,.T.);
#363=ORIENTED_EDGE('',*,*,#236,.F.);
#364=ORIENTED_EDGE('',*,*,#232,.F.);
#365=ORIENTED_EDGE('',*,*,#270,.T.);
#366=ORIENTED_EDGE('',*,*,#248,.T.);
#367=ORIENTED_EDGE('',*,*,#253,.F.);
#368=ORIENTED_EDGE('',*,*,#250,.F.);
#369=ORIENTED_EDGE('',*,*,#223,.T.);
#370=ORIENTED_EDGE('',*,*,#220,.T.);
#371=ORIENTED_EDGE('',*,*,#217,.T.);
#372=ORIENTED_EDGE('',*,*,#226,.T.);
#373=ORIENTED_EDGE('',*,*,#243,.F.);
#374=ORIENTED_EDGE('',*,*,#267,.F.);
#375=ORIENTED_EDGE('',*,*,#256,.F.);
#376=ORIENTED_EDGE('',*,*,#271,.F.);
#377=ORIENTED_EDGE('',*,*,#271,.T.);
#378=ORIENTED_EDGE('',*,*,#255,.F.);
#379=ORIENTED_EDGE('',*,*,#270,.F.);
#380=ORIENTED_EDGE('',*,*,#244,.T.);
#381=ORIENTED_EDGE('',*,*,#238,.F.);
#382=ORIENTED_EDGE('',*,*,#272,.F.);
#383=ORIENTED_EDGE('',*,*,#261,.F.);
#384=ORIENTED_EDGE('',*,*,#268,.F.);
#385=ORIENTED_EDGE('',*,*,#272,.T.);
#386=ORIENTED_EDGE('',*,*,#237,.T.);
#387=ORIENTED_EDGE('',*,*,#269,.T.);
#388=ORIENTED_EDGE('',*,*,#262,.F.);
#389=PLANE('',#449);
#390=PLANE('',#450);
#391=PLANE('',#451);
#392=PLANE('',#452);
#393=PLANE('',#453);
#394=PLANE('',#454);
#395=PLANE('',#455);
#396=PLANE('',#456);
#397=PLANE('',#457);
#398=PLANE('',#458);
#399=PLANE('',#459);
#400=PLANE('',#460);
#401=PLANE('',#461);
#402=PLANE('',#462);
#403=PLANE('',#463);
#404=PLANE('',#464);
#405=PLANE('',#465);
#406=PLANE('',#466);
#407=PLANE('',#467);
#408=PLANE('',#468);
#409=PLANE('',#469);
#410=PLANE('',#470);
#411=ADVANCED_FACE('',(#25),#389,.F.);
#412=ADVANCED_FACE('',(#26),#390,.F.);
#413=ADVANCED_FACE('',(#27),#391,.F.);
#414=ADVANCED_FACE('',(#28),#392,.F.);
#415=ADVANCED_FACE('',(#29),#393,.T.);
#416=ADVANCED_FACE('',(#30),#394,.T.);
#417=ADVANCED_FACE('',(#31),#395,.T.);
#418=ADVANCED_FACE('',(#32),#396,.F.);
#419=ADVANCED_FACE('',(#33),#397,.F.);
#420=ADVANCED_FACE('',(#34),#398,.T.);
#421=ADVANCED_FACE('',(#35),#399,.T.);
#422=ADVANCED_FACE('',(#36),#400,.T.);
#423=ADVANCED_FACE('',(#37),#401,.T.);
#424=ADVANCED_FACE('',(#38),#402,.T.);
#425=ADVANCED_FACE('',(#39),#403,.F.);
#426=ADVANCED_FACE('',(#40),#404,.F.);
#427=ADVANCED_FACE('',(#41,#17),#405,.F.);
#428=ADVANCED_FACE('',(#42),#406,.T.);
#429=ADVANCED_FACE('',(#43),#407,.T.);
#430=ADVANCED_FACE('',(#44,#18),#408,.T.);
#431=ADVANCED_FACE('',(#45),#409,.F.);
#432=ADVANCED_FACE('',(#46),#15,.T.);
#433=ADVANCED_FACE('',(#47),#410,.F.);
#434=ADVANCED_FACE('',(#48),#16,.T.);
#435=CLOSED_SHELL('',(#411,#412,#413,#414,#415,#416,#417,#418,#419,#420,
#421,#422,#423,#424,#425,#426,#427,#428,#429,#430,#431,#432,#433,#434));
#436=DERIVED_UNIT_ELEMENT(#438,1.);
#437=DERIVED_UNIT_ELEMENT(#729,-3.);
#438=(
MASS_UNIT()
NAMED_UNIT(*)
SI_UNIT(.KILO.,.GRAM.)
);
#439=DERIVED_UNIT((#436,#437));
#440=MEASURE_REPRESENTATION_ITEM('density measure',
POSITIVE_RATIO_MEASURE(7850.),#439);
#441=PROPERTY_DEFINITION_REPRESENTATION(#446,#443);
#442=PROPERTY_DEFINITION_REPRESENTATION(#447,#444);
#443=REPRESENTATION('material name',(#445),#726);
#444=REPRESENTATION('density',(#440),#726);
#445=DESCRIPTIVE_REPRESENTATION_ITEM('Steel','Steel');
#446=PROPERTY_DEFINITION('material property','material name',#736);
#447=PROPERTY_DEFINITION('material property','density of part',#736);
#448=AXIS2_PLACEMENT_3D('',#569,#471,#472);
#449=AXIS2_PLACEMENT_3D('',#570,#473,#474);
#450=AXIS2_PLACEMENT_3D('',#579,#479,#480);
#451=AXIS2_PLACEMENT_3D('',#585,#484,#485);
#452=AXIS2_PLACEMENT_3D('',#591,#489,#490);
#453=AXIS2_PLACEMENT_3D('',#594,#493,#494);
#454=AXIS2_PLACEMENT_3D('',#603,#499,#500);
#455=AXIS2_PLACEMENT_3D('',#612,#505,#506);
#456=AXIS2_PLACEMENT_3D('',#615,#509,#510);
#457=AXIS2_PLACEMENT_3D('',#626,#514,#515);
#458=AXIS2_PLACEMENT_3D('',#637,#519,#520);
#459=AXIS2_PLACEMENT_3D('',#646,#525,#526);
#460=AXIS2_PLACEMENT_3D('',#655,#531,#532);
#461=AXIS2_PLACEMENT_3D('',#658,#535,#536);
#462=AXIS2_PLACEMENT_3D('',#669,#540,#541);
#463=AXIS2_PLACEMENT_3D('',#680,#545,#546);
#464=AXIS2_PLACEMENT_3D('',#683,#549,#550);
#465=AXIS2_PLACEMENT_3D('',#686,#553,#554);
#466=AXIS2_PLACEMENT_3D('',#687,#555,#556);
#467=AXIS2_PLACEMENT_3D('',#689,#558,#559);
#468=AXIS2_PLACEMENT_3D('',#691,#561,#562);
#469=AXIS2_PLACEMENT_3D('',#694,#565,#566);
#470=AXIS2_PLACEMENT_3D('',#709,#567,#568);
#471=DIRECTION('axis',(0.,0.,1.));
#472=DIRECTION('refdir',(1.,0.,0.));
#473=DIRECTION('center_axis',(1.,0.,0.));
#474=DIRECTION('ref_axis',(0.,-1.78260902495599E-30,1.));
#475=DIRECTION('',(0.,0.,-1.));
#476=DIRECTION('',(0.,-1.,0.));
#477=DIRECTION('',(0.,0.,1.));
#478=DIRECTION('',(0.,-1.,0.));
#479=DIRECTION('center_axis',(0.,0.,-1.));
#480=DIRECTION('ref_axis',(1.,0.,0.));
#481=DIRECTION('',(-1.,0.,0.));
#482=DIRECTION('',(1.,7.01193489236941E-16,0.));
#483=DIRECTION('',(0.,-1.,0.));
#484=DIRECTION('center_axis',(-1.,0.,0.));
#485=DIRECTION('ref_axis',(0.,0.,-1.));
#486=DIRECTION('',(0.,0.,1.));
#487=DIRECTION('',(0.,0.,-1.));
#488=DIRECTION('',(0.,-1.,0.));
#489=DIRECTION('center_axis',(0.,0.,1.));
#490=DIRECTION('ref_axis',(-1.,6.15000113609815E-31,0.));
#491=DIRECTION('',(1.,0.,0.));
#492=DIRECTION('',(-1.,-7.01193489236941E-16,0.));
#493=DIRECTION('center_axis',(1.,0.,0.));
#494=DIRECTION('ref_axis',(0.,-1.,0.));
#495=DIRECTION('',(0.,1.,0.));
#496=DIRECTION('',(0.,0.,-1.));
#497=DIRECTION('',(0.,-1.,0.));
#498=DIRECTION('',(0.,0.,-1.));
#499=DIRECTION('center_axis',(-1.,0.,0.));
#500=DIRECTION('ref_axis',(0.,1.,0.));
#501=DIRECTION('',(0.,-1.,0.));
#502=DIRECTION('',(0.,0.,-1.));
#503=DIRECTION('',(0.,1.,0.));
#504=DIRECTION('',(0.,0.,-1.));
#505=DIRECTION('center_axis',(0.,0.,-1.));
#506=DIRECTION('ref_axis',(-1.,0.,0.));
#507=DIRECTION('',(-1.,0.,0.));
#508=DIRECTION('',(1.,0.,0.));
#509=DIRECTION('center_axis',(0.,0.,1.));
#510=DIRECTION('ref_axis',(-1.,0.,0.));
#511=DIRECTION('',(0.,-1.,0.));
#512=DIRECTION('',(1.,0.,0.));
#513=DIRECTION('',(0.,1.,0.));
#514=DIRECTION('center_axis',(0.,0.,1.));
#515=DIRECTION('ref_axis',(-1.,0.,0.));
#516=DIRECTION('',(0.,-1.,0.));
#517=DIRECTION('',(1.,0.,0.));
#518=DIRECTION('',(0.,1.,0.));
#519=DIRECTION('center_axis',(-1.,0.,0.));
#520=DIRECTION('ref_axis',(0.,-1.,0.));
#521=DIRECTION('',(0.,1.,0.));
#522=DIRECTION('',(0.,0.,1.));
#523=DIRECTION('',(0.,-1.,0.));
#524=DIRECTION('',(0.,0.,1.));
#525=DIRECTION('center_axis',(1.,0.,0.));
#526=DIRECTION('ref_axis',(0.,1.,0.));
#527=DIRECTION('',(0.,-1.,0.));
#528=DIRECTION('',(0.,0.,1.));
#529=DIRECTION('',(0.,1.,0.));
#530=DIRECTION('',(0.,0.,1.));
#531=DIRECTION('center_axis',(0.,0.,1.));
#532=DIRECTION('ref_axis',(1.,0.,0.));
#533=DIRECTION('',(-1.,0.,0.));
#534=DIRECTION('',(1.,0.,0.));
#535=DIRECTION('center_axis',(0.,0.,1.));
#536=DIRECTION('ref_axis',(-1.,0.,0.));
#537=DIRECTION('',(0.,-1.,0.));
#538=DIRECTION('',(1.,0.,0.));
#539=DIRECTION('',(0.,1.,0.));
#540=DIRECTION('center_axis',(0.,0.,1.));
#541=DIRECTION('ref_axis',(-1.,0.,0.));
#542=DIRECTION('',(0.,-1.,0.));
#543=DIRECTION('',(1.,0.,0.));
#544=DIRECTION('',(0.,1.,0.));
#545=DIRECTION('center_axis',(1.,0.,0.));
#546=DIRECTION('ref_axis',(0.,0.,-1.));
#547=DIRECTION('',(0.,0.,-1.));
#548=DIRECTION('',(0.,0.,-1.));
#549=DIRECTION('center_axis',(-1.,0.,0.));
#550=DIRECTION('ref_axis',(0.,0.,1.));
#551=DIRECTION('',(0.,0.,1.));
#552=DIRECTION('',(0.,0.,1.));
#553=DIRECTION('center_axis',(0.,1.,0.));
#554=DIRECTION('ref_axis',(0.,0.,1.));
#555=DIRECTION('center_axis',(9.06304509898087E-16,-1.,0.));
#556=DIRECTION('ref_axis',(1.,9.06304509898087E-16,0.));
#557=DIRECTION('',(0.,0.,-1.));
#558=DIRECTION('center_axis',(9.06304509898087E-16,-1.,0.));
#559=DIRECTION('ref_axis',(1.,9.06304509898087E-16,0.));
#560=DIRECTION('',(0.,0.,1.));
#561=DIRECTION('center_axis',(-7.01193489236941E-16,1.,0.));
#562=DIRECTION('ref_axis',(0.,0.,-1.));
#563=DIRECTION('',(0.,0.,1.));
#564=DIRECTION('',(0.,0.,1.));
#565=DIRECTION('center_axis',(1.,0.,0.));
#566=DIRECTION('ref_axis',(0.,0.,-1.));
#567=DIRECTION('center_axis',(-1.,0.,0.));
#568=DIRECTION('ref_axis',(0.,0.,1.));
#569=CARTESIAN_POINT('',(0.,0.,0.));
#570=CARTESIAN_POINT('Origin',(30.32,98.4517650267728,-16.45));
#571=CARTESIAN_POINT('',(30.32,94.452,-9.55));
#572=CARTESIAN_POINT('',(30.32,94.452,-16.45));
#573=CARTESIAN_POINT('',(30.32,94.452,-14.725));
#574=CARTESIAN_POINT('',(30.32,98.4517650267728,-9.55));
#575=CARTESIAN_POINT('',(30.32,98.4517650267728,-9.55));
#576=CARTESIAN_POINT('',(30.32,98.4517650267728,-16.45));
#577=CARTESIAN_POINT('',(30.32,98.4517650267728,-13.5));
#578=CARTESIAN_POINT('',(30.32,98.4517650267728,-16.45));
#579=CARTESIAN_POINT('Origin',(10.32,98.4517650267728,-16.45));
#580=CARTESIAN_POINT('',(10.32,94.452,-16.45));
#581=CARTESIAN_POINT('',(15.32,94.452,-16.45));
#582=CARTESIAN_POINT('',(10.32,98.4517650267728,-16.45));
#583=CARTESIAN_POINT('',(34.32,98.4517650267728,-16.45));
#584=CARTESIAN_POINT('',(10.32,98.4517650267728,-16.45));
#585=CARTESIAN_POINT('Origin',(10.32,98.4517650267728,-9.55));
#586=CARTESIAN_POINT('',(10.32,94.452,-9.55));
#587=CARTESIAN_POINT('',(10.32,94.452,-11.275));
#588=CARTESIAN_POINT('',(10.32,98.4517650267728,-9.55));
#589=CARTESIAN_POINT('',(10.32,98.4517650267728,-10.05));
#590=CARTESIAN_POINT('',(10.32,98.4517650267728,-9.55));
#591=CARTESIAN_POINT('Origin',(30.32,98.4517650267728,-9.55));
#592=CARTESIAN_POINT('',(25.32,94.452,-9.55));
#593=CARTESIAN_POINT('',(44.32,98.4517650267728,-9.55));
#594=CARTESIAN_POINT('Origin',(58.3199999999999,98.4517650267728,-15.45));
#595=CARTESIAN_POINT('',(58.32,94.452,-15.45));
#596=CARTESIAN_POINT('',(58.3199999999999,98.4517650267728,-15.45));
#597=CARTESIAN_POINT('',(58.3199999999999,70.8388239286713,-15.45));
#598=CARTESIAN_POINT('',(58.3199999999999,94.452,-20.95));
#599=CARTESIAN_POINT('',(58.3199999999999,94.452,-15.45));
#600=CARTESIAN_POINT('',(58.3199999999999,98.4517650267728,-20.95));
#601=CARTESIAN_POINT('',(58.3199999999999,94.452,-20.95));
#602=CARTESIAN_POINT('',(58.3199999999999,98.4517650267728,-15.45));
#603=CARTESIAN_POINT('Origin',(-17.68,94.452,-15.45));
#604=CARTESIAN_POINT('',(-17.6799999999979,98.4517650267729,-15.45));
#605=CARTESIAN_POINT('',(-17.68,94.452,-15.45));
#606=CARTESIAN_POINT('',(-17.68,68.8389414152849,-15.45));
#607=CARTESIAN_POINT('',(-17.68,98.4517650267728,-20.95));
#608=CARTESIAN_POINT('',(-17.68,98.4517650267728,-15.45));
#609=CARTESIAN_POINT('',(-17.68,94.452,-20.95));
#610=CARTESIAN_POINT('',(-17.68,98.4517650267728,-20.95));
#611=CARTESIAN_POINT('',(-17.68,94.452,-15.45));
#612=CARTESIAN_POINT('Origin',(20.32,96.4518825133864,-20.95));
#613=CARTESIAN_POINT('',(-17.68,94.452,-20.95));
#614=CARTESIAN_POINT('',(58.3199999999999,98.4517650267728,-20.95));
#615=CARTESIAN_POINT('Origin',(60.82,43.2258828305699,-15.45));
#616=CARTESIAN_POINT('',(63.22,97.981999172171,-15.45));
#617=CARTESIAN_POINT('Ctrl Pts',(63.22,97.9819991750473,-15.45));
#618=CARTESIAN_POINT('Ctrl Pts',(61.5902418652817,98.1646325949163,-15.45));
#619=CARTESIAN_POINT('Ctrl Pts',(59.9539019757772,98.3207165270168,-15.45));
#620=CARTESIAN_POINT('Ctrl Pts',(58.3199999999999,98.4517650267728,-15.45));
#621=CARTESIAN_POINT('',(63.22,-12.,-15.45));
#622=CARTESIAN_POINT('',(63.22,70.5983207834216,-15.45));
#623=CARTESIAN_POINT('',(58.32,-12.,-15.45));
#624=CARTESIAN_POINT('',(-22.68,-12.,-15.45));
#625=CARTESIAN_POINT('',(58.32,15.6129414152849,-15.45));
#626=CARTESIAN_POINT('Origin',(60.82,43.2258828305699,-15.45));
#627=CARTESIAN_POINT('',(-17.68,-12.,-15.45));
#628=CARTESIAN_POINT('',(-17.68,15.6129414152849,-15.45));
#629=CARTESIAN_POINT('',(-22.58,-12.,-15.45));
#630=CARTESIAN_POINT('',(-22.68,-12.,-15.45));
#631=CARTESIAN_POINT('',(-22.58,97.981999172171,-15.45));
#632=CARTESIAN_POINT('',(-22.58,70.5983207834217,-15.45));
#633=CARTESIAN_POINT('Ctrl Pts',(-17.6799999999979,98.4517650267729,-15.45));
#634=CARTESIAN_POINT('Ctrl Pts',(-19.3139019758818,98.3207165270084,-15.45));
#635=CARTESIAN_POINT('Ctrl Pts',(-20.9502418654941,98.1646325948961,-15.45));
#636=CARTESIAN_POINT('Ctrl Pts',(-22.5800000003183,97.9819991750117,-15.45));
#637=CARTESIAN_POINT('Origin',(-17.68,98.4517650267728,-10.55));
#638=CARTESIAN_POINT('',(-17.68,94.452,-10.55));
#639=CARTESIAN_POINT('',(-17.6799999999979,98.4517650267729,-10.55));
#640=CARTESIAN_POINT('',(-17.68,70.8388239286713,-10.55));
#641=CARTESIAN_POINT('',(-17.68,94.452,-5.05));
#642=CARTESIAN_POINT('',(-17.68,94.452,-10.55));
#643=CARTESIAN_POINT('',(-17.68,98.4517650267728,-5.05));
#644=CARTESIAN_POINT('',(-17.68,98.4517650267728,-5.05));
#645=CARTESIAN_POINT('',(-17.68,98.4517650267728,-10.55));
#646=CARTESIAN_POINT('Origin',(58.3199999999999,94.452,-10.55));
#647=CARTESIAN_POINT('',(58.3199999999999,98.4517650267728,-10.55));
#648=CARTESIAN_POINT('',(58.32,94.452,-10.55));
#649=CARTESIAN_POINT('',(58.3199999999999,68.8389414152849,-10.55));
#650=CARTESIAN_POINT('',(58.3199999999999,98.4517650267728,-5.05));
#651=CARTESIAN_POINT('',(58.3199999999999,98.4517650267728,-10.55));
#652=CARTESIAN_POINT('',(58.3199999999999,94.452,-5.05));
#653=CARTESIAN_POINT('',(58.3199999999999,94.452,-5.05));
#654=CARTESIAN_POINT('',(58.3199999999999,94.452,-10.55));
#655=CARTESIAN_POINT('Origin',(20.32,96.4518825133864,-5.05));
#656=CARTESIAN_POINT('',(58.3199999999999,98.4517650267728,-5.05));
#657=CARTESIAN_POINT('',(-17.68,94.452,-5.05));
#658=CARTESIAN_POINT('Origin',(60.82,43.2258828305699,-10.55));
#659=CARTESIAN_POINT('',(-22.58,97.981999172171,-10.55));
#660=CARTESIAN_POINT('Ctrl Pts',(-17.6799999999979,98.4517650267729,-10.55));
#661=CARTESIAN_POINT('Ctrl Pts',(-19.3139019757754,98.320716527017,-10.55));
#662=CARTESIAN_POINT('Ctrl Pts',(-20.950241865281,98.1646325949164,-10.55));
#663=CARTESIAN_POINT('Ctrl Pts',(-22.58,97.9819991750473,-10.55));
#664=CARTESIAN_POINT('',(-22.58,-12.,-10.55));
#665=CARTESIAN_POINT('',(-22.58,70.5983207834217,-10.55));
#666=CARTESIAN_POINT('',(-17.68,-12.,-10.55));
#667=CARTESIAN_POINT('',(-22.68,-12.,-10.55));
#668=CARTESIAN_POINT('',(-17.68,15.6129414152849,-10.55));
#669=CARTESIAN_POINT('Origin',(60.82,43.2258828305699,-10.55));
#670=CARTESIAN_POINT('',(58.32,-12.,-10.55));
#671=CARTESIAN_POINT('',(58.32,15.6129414152849,-10.55));
#672=CARTESIAN_POINT('',(63.22,-12.,-10.55));
#673=CARTESIAN_POINT('',(-22.68,-12.,-10.55));
#674=CARTESIAN_POINT('',(63.22,97.981999172171,-10.55));
#675=CARTESIAN_POINT('',(63.22,70.5983207834216,-10.55));
#676=CARTESIAN_POINT('Ctrl Pts',(63.2200000003184,97.9819991750117,-10.55));
#677=CARTESIAN_POINT('Ctrl Pts',(61.5902418654948,98.164632594896,-10.55));
#678=CARTESIAN_POINT('Ctrl Pts',(59.9539019758835,98.3207165270083,-10.55));
#679=CARTESIAN_POINT('Ctrl Pts',(58.3199999999999,98.4517650267728,-10.55));
#680=CARTESIAN_POINT('Origin',(58.32,-12.,-10.55));
#681=CARTESIAN_POINT('',(58.32,-12.,-13.));
#682=CARTESIAN_POINT('',(58.32,94.452,-10.55));
#683=CARTESIAN_POINT('Origin',(-17.68,-12.,-15.45));
#684=CARTESIAN_POINT('',(-17.68,-12.0000000000001,-15.45));
#685=CARTESIAN_POINT('',(-17.68,94.452,-15.45));
#686=CARTESIAN_POINT('Origin',(20.32,94.452,-13.));
#687=CARTESIAN_POINT('Origin',(58.32,-12.,-15.45));
#688=CARTESIAN_POINT('',(-22.58,-12.,-15.45));
#689=CARTESIAN_POINT('Origin',(58.32,-12.,-15.45));
#690=CARTESIAN_POINT('',(63.22,-12.,-15.45));
#691=CARTESIAN_POINT('Origin',(58.3199999999999,98.4517650267728,-10.55));
#692=CARTESIAN_POINT('',(58.3199999999999,98.4517650267728,-15.45));
#693=CARTESIAN_POINT('',(-17.6799999999979,98.4517650267729,-15.45));
#694=CARTESIAN_POINT('Origin',(-22.58,97.9707587362734,-15.45));
#695=CARTESIAN_POINT('Ctrl Pts',(-22.58,97.981999172171,-15.45));
#696=CARTESIAN_POINT('Ctrl Pts',(-22.58,97.981999172171,-14.6333333333333));
#697=CARTESIAN_POINT('Ctrl Pts',(-22.58,97.981999172171,-13.8166666666667));
#698=CARTESIAN_POINT('Ctrl Pts',(-22.58,97.981999172171,-12.1833333333333));
#699=CARTESIAN_POINT('Ctrl Pts',(-22.58,97.981999172171,-11.3666666666667));
#700=CARTESIAN_POINT('Ctrl Pts',(-22.58,97.981999172171,-10.55));
#701=CARTESIAN_POINT('Ctrl Pts',(-17.6799999999979,98.4517650267729,-15.45));
#702=CARTESIAN_POINT('Ctrl Pts',(-17.6799999999979,98.4517650267729,-10.55));
#703=CARTESIAN_POINT('Ctrl Pts',(-19.3473228493632,98.3180359773823,-15.45));
#704=CARTESIAN_POINT('Ctrl Pts',(-19.3473228493632,98.3180359773823,-10.55));
#705=CARTESIAN_POINT('Ctrl Pts',(-21.0171843657467,98.158236839601,-15.45));
#706=CARTESIAN_POINT('Ctrl Pts',(-21.0171843657467,98.158236839601,-10.55));
#707=CARTESIAN_POINT('Ctrl Pts',(-22.68,97.9707587362734,-15.45));
#708=CARTESIAN_POINT('Ctrl Pts',(-22.68,97.9707587362734,-10.55));
#709=CARTESIAN_POINT('Origin',(63.22,-12.,-15.45));
#710=CARTESIAN_POINT('Ctrl Pts',(63.22,97.981999172171,-10.55));
#711=CARTESIAN_POINT('Ctrl Pts',(63.22,97.981999172171,-11.3666666666667));
#712=CARTESIAN_POINT('Ctrl Pts',(63.22,97.981999172171,-12.1833333333333));
#713=CARTESIAN_POINT('Ctrl Pts',(63.22,97.981999172171,-13.8166666666667));
#714=CARTESIAN_POINT('Ctrl Pts',(63.22,97.981999172171,-14.6333333333333));
#715=CARTESIAN_POINT('Ctrl Pts',(63.22,97.981999172171,-15.45));
#716=CARTESIAN_POINT('Ctrl Pts',(63.32,97.9707587362734,-15.45));
#717=CARTESIAN_POINT('Ctrl Pts',(63.32,97.9707587362734,-10.55));
#718=CARTESIAN_POINT('Ctrl Pts',(61.6571843657473,98.1582368396009,-15.45));
#719=CARTESIAN_POINT('Ctrl Pts',(61.6571843657473,98.1582368396009,-10.55));
#720=CARTESIAN_POINT('Ctrl Pts',(59.9873228493649,98.3180359773822,-15.45));
#721=CARTESIAN_POINT('Ctrl Pts',(59.9873228493649,98.3180359773822,-10.55));
#722=CARTESIAN_POINT('Ctrl Pts',(58.3199999999999,98.4517650267728,-15.45));
#723=CARTESIAN_POINT('Ctrl Pts',(58.3199999999999,98.4517650267728,-10.55));
#724=UNCERTAINTY_MEASURE_WITH_UNIT(LENGTH_MEASURE(0.01),#728,
'DISTANCE_ACCURACY_VALUE',
'Maximum model space distance between geometric entities at asserted c
onnectivities');
#725=UNCERTAINTY_MEASURE_WITH_UNIT(LENGTH_MEASURE(0.01),#728,
'DISTANCE_ACCURACY_VALUE',
'Maximum model space distance between geometric entities at asserted c
onnectivities');
#726=(
GEOMETRIC_REPRESENTATION_CONTEXT(3)
GLOBAL_UNCERTAINTY_ASSIGNED_CONTEXT((#724))
GLOBAL_UNIT_ASSIGNED_CONTEXT((#728,#730,#731))
REPRESENTATION_CONTEXT('','3D')
);
#727=(
GEOMETRIC_REPRESENTATION_CONTEXT(3)
GLOBAL_UNCERTAINTY_ASSIGNED_CONTEXT((#725))
GLOBAL_UNIT_ASSIGNED_CONTEXT((#728,#730,#731))
REPRESENTATION_CONTEXT('','3D')
);
#728=(
LENGTH_UNIT()
NAMED_UNIT(*)
SI_UNIT(.MILLI.,.METRE.)
);
#729=(
LENGTH_UNIT()
NAMED_UNIT(*)
SI_UNIT($,.METRE.)
);
#730=(
NAMED_UNIT(*)
PLANE_ANGLE_UNIT()
SI_UNIT($,.RADIAN.)
);
#731=(
NAMED_UNIT(*)
SI_UNIT($,.STERADIAN.)
SOLID_ANGLE_UNIT()
);
#732=SHAPE_DEFINITION_REPRESENTATION(#733,#734);
#733=PRODUCT_DEFINITION_SHAPE('',$,#736);
#734=SHAPE_REPRESENTATION('',(#448),#726);
#735=PRODUCT_DEFINITION_CONTEXT('part definition',#740,'design');
#736=PRODUCT_DEFINITION('Drawer','Drawer',#737,#735);
#737=PRODUCT_DEFINITION_FORMATION('',$,#742);
#738=PRODUCT_RELATED_PRODUCT_CATEGORY('Drawer','Drawer',(#742));
#739=APPLICATION_PROTOCOL_DEFINITION('international standard',
'automotive_design',2009,#740);
#740=APPLICATION_CONTEXT(
'Core Data for Automotive Mechanical Design Process');
#741=PRODUCT_CONTEXT('part definition',#740,'mechanical');
#742=PRODUCT('Drawer','Drawer',$,(#741));
#743=PRESENTATION_STYLE_ASSIGNMENT((#744));
#744=SURFACE_STYLE_USAGE(.BOTH.,#745);
#745=SURFACE_SIDE_STYLE('',(#746));
#746=SURFACE_STYLE_FILL_AREA(#747);
#747=FILL_AREA_STYLE('Steel - Satin',(#748));
#748=FILL_AREA_STYLE_COLOUR('Steel - Satin',#749);
#749=COLOUR_RGB('Steel - Satin',0.627450980392157,0.627450980392157,0.627450980392157);
ENDSEC;
END-ISO-10303-21;
