ISO-10303-21;
HEADER;
/* Generated by software containing ST-Developer
 * from STEP Tools, Inc. (www.steptools.com) 
 */

FILE_DESCRIPTION(
/* description */ (''),
/* implementation_level */ '2;1');

FILE_NAME(
/* name */ 'Plastic M2.5 Spacer.step',
/* time_stamp */ '2026-07-11T22:24:54+01:00',
/* author */ (''),
/* organization */ (''),
/* preprocessor_version */ 'ST-DEVELOPER v20.1',
/* originating_system */ 'Autodesk Translation Framework v15.8.0.0',
/* authorisation */ '');

FILE_SCHEMA (('AUTOMOTIVE_DESIGN { 1 0 10303 214 3 1 1 }'));
ENDSEC;

DATA;
#10=MECHANICAL_DESIGN_GEOMETRIC_PRESENTATION_REPRESENTATION('',(#13),#245);
#11=SHAPE_REPRESENTATION_RELATIONSHIP('SRR','None',#252,#12);
#12=ADVANCED_BREP_SHAPE_REPRESENTATION('',(#14),#244);
#13=STYLED_ITEM('',(#261),#14);
#14=MANIFOLD_SOLID_BREP('Body1',#131);
#15=FACE_BOUND('',#36,.T.);
#16=FACE_BOUND('',#38,.T.);
#17=PLANE('',#161);
#18=PLANE('',#162);
#19=CYLINDRICAL_SURFACE('',#159,1.35);
#20=CYLINDRICAL_SURFACE('',#160,2.25);
#21=FACE_OUTER_BOUND('',#29,.T.);
#22=FACE_OUTER_BOUND('',#30,.T.);
#23=FACE_OUTER_BOUND('',#31,.T.);
#24=FACE_OUTER_BOUND('',#32,.T.);
#25=FACE_OUTER_BOUND('',#33,.T.);
#26=FACE_OUTER_BOUND('',#34,.T.);
#27=FACE_OUTER_BOUND('',#35,.T.);
#28=FACE_OUTER_BOUND('',#37,.T.);
#29=EDGE_LOOP('',(#87,#88,#89,#90,#91));
#30=EDGE_LOOP('',(#92,#93,#94,#95));
#31=EDGE_LOOP('',(#96,#97,#98,#99));
#32=EDGE_LOOP('',(#100,#101,#102,#103,#104));
#33=EDGE_LOOP('',(#105,#106,#107,#108,#109));
#34=EDGE_LOOP('',(#110,#111,#112,#113,#114));
#35=EDGE_LOOP('',(#115));
#36=EDGE_LOOP('',(#116));
#37=EDGE_LOOP('',(#117));
#38=EDGE_LOOP('',(#118));
#39=LINE('',#214,#45);
#40=LINE('',#220,#46);
#41=LINE('',#226,#47);
#42=LINE('',#234,#48);
#43=LINE('',#237,#49);
#44=LINE('',#239,#50);
#45=VECTOR('',#171,1.485);
#46=VECTOR('',#178,1.35);
#47=VECTOR('',#185,2.25);
#48=VECTOR('',#194,2.16);
#49=VECTOR('',#199,1.35);
#50=VECTOR('',#202,2.25);
#51=CIRCLE('',#146,1.35);
#52=CIRCLE('',#147,1.35);
#53=CIRCLE('',#148,1.485);
#54=CIRCLE('',#150,1.35);
#55=CIRCLE('',#151,1.485);
#56=CIRCLE('',#153,2.25);
#57=CIRCLE('',#154,2.16);
#58=CIRCLE('',#156,2.25);
#59=CIRCLE('',#157,2.25);
#60=CIRCLE('',#158,2.16);
#61=VERTEX_POINT('',#209);
#62=VERTEX_POINT('',#210);
#63=VERTEX_POINT('',#213);
#64=VERTEX_POINT('',#217);
#65=VERTEX_POINT('',#219);
#66=VERTEX_POINT('',#223);
#67=VERTEX_POINT('',#225);
#68=VERTEX_POINT('',#229);
#69=VERTEX_POINT('',#230);
#70=VERTEX_POINT('',#233);
#71=EDGE_CURVE('',#61,#62,#51,.T.);
#72=EDGE_CURVE('',#62,#61,#52,.T.);
#73=EDGE_CURVE('',#62,#63,#39,.T.);
#74=EDGE_CURVE('',#63,#63,#53,.T.);
#75=EDGE_CURVE('',#64,#64,#54,.T.);
#76=EDGE_CURVE('',#64,#65,#40,.T.);
#77=EDGE_CURVE('',#65,#65,#55,.T.);
#78=EDGE_CURVE('',#66,#66,#56,.T.);
#79=EDGE_CURVE('',#66,#67,#41,.T.);
#80=EDGE_CURVE('',#67,#67,#57,.T.);
#81=EDGE_CURVE('',#68,#69,#58,.T.);
#82=EDGE_CURVE('',#69,#68,#59,.T.);
#83=EDGE_CURVE('',#69,#70,#42,.T.);
#84=EDGE_CURVE('',#70,#70,#60,.T.);
#85=EDGE_CURVE('',#61,#64,#43,.T.);
#86=EDGE_CURVE('',#68,#66,#44,.T.);
#87=ORIENTED_EDGE('',*,*,#71,.F.);
#88=ORIENTED_EDGE('',*,*,#72,.F.);
#89=ORIENTED_EDGE('',*,*,#73,.T.);
#90=ORIENTED_EDGE('',*,*,#74,.F.);
#91=ORIENTED_EDGE('',*,*,#73,.F.);
#92=ORIENTED_EDGE('',*,*,#75,.F.);
#93=ORIENTED_EDGE('',*,*,#76,.T.);
#94=ORIENTED_EDGE('',*,*,#77,.F.);
#95=ORIENTED_EDGE('',*,*,#76,.F.);
#96=ORIENTED_EDGE('',*,*,#78,.F.);
#97=ORIENTED_EDGE('',*,*,#79,.T.);
#98=ORIENTED_EDGE('',*,*,#80,.F.);
#99=ORIENTED_EDGE('',*,*,#79,.F.);
#100=ORIENTED_EDGE('',*,*,#81,.F.);
#101=ORIENTED_EDGE('',*,*,#82,.F.);
#102=ORIENTED_EDGE('',*,*,#83,.T.);
#103=ORIENTED_EDGE('',*,*,#84,.F.);
#104=ORIENTED_EDGE('',*,*,#83,.F.);
#105=ORIENTED_EDGE('',*,*,#71,.T.);
#106=ORIENTED_EDGE('',*,*,#72,.T.);
#107=ORIENTED_EDGE('',*,*,#85,.T.);
#108=ORIENTED_EDGE('',*,*,#75,.T.);
#109=ORIENTED_EDGE('',*,*,#85,.F.);
#110=ORIENTED_EDGE('',*,*,#81,.T.);
#111=ORIENTED_EDGE('',*,*,#82,.T.);
#112=ORIENTED_EDGE('',*,*,#86,.T.);
#113=ORIENTED_EDGE('',*,*,#78,.T.);
#114=ORIENTED_EDGE('',*,*,#86,.F.);
#115=ORIENTED_EDGE('',*,*,#80,.T.);
#116=ORIENTED_EDGE('',*,*,#74,.T.);
#117=ORIENTED_EDGE('',*,*,#84,.T.);
#118=ORIENTED_EDGE('',*,*,#77,.T.);
#119=CONICAL_SURFACE('',#145,1.485,0.785398163397446);
#120=CONICAL_SURFACE('',#149,1.35,0.785398163397446);
#121=CONICAL_SURFACE('',#152,2.25,0.785398163397451);
#122=CONICAL_SURFACE('',#155,2.16,0.785398163397441);
#123=ADVANCED_FACE('',(#21),#119,.F.);
#124=ADVANCED_FACE('',(#22),#120,.F.);
#125=ADVANCED_FACE('',(#23),#121,.T.);
#126=ADVANCED_FACE('',(#24),#122,.T.);
#127=ADVANCED_FACE('',(#25),#19,.F.);
#128=ADVANCED_FACE('',(#26),#20,.T.);
#129=ADVANCED_FACE('',(#27,#15),#17,.F.);
#130=ADVANCED_FACE('',(#28,#16),#18,.T.);
#131=CLOSED_SHELL('',(#123,#124,#125,#126,#127,#128,#129,#130));
#132=DERIVED_UNIT_ELEMENT(#134,1.);
#133=DERIVED_UNIT_ELEMENT(#247,-3.);
#134=(
MASS_UNIT()
NAMED_UNIT(*)
SI_UNIT(.KILO.,.GRAM.)
);
#135=DERIVED_UNIT((#132,#133));
#136=MEASURE_REPRESENTATION_ITEM('density measure',
POSITIVE_RATIO_MEASURE(7850.),#135);
#137=PROPERTY_DEFINITION_REPRESENTATION(#142,#139);
#138=PROPERTY_DEFINITION_REPRESENTATION(#143,#140);
#139=REPRESENTATION('material name',(#141),#244);
#140=REPRESENTATION('density',(#136),#244);
#141=DESCRIPTIVE_REPRESENTATION_ITEM('Steel','Steel');
#142=PROPERTY_DEFINITION('material property','material name',#254);
#143=PROPERTY_DEFINITION('material property','density of part',#254);
#144=AXIS2_PLACEMENT_3D('',#207,#163,#164);
#145=AXIS2_PLACEMENT_3D('',#208,#165,#166);
#146=AXIS2_PLACEMENT_3D('',#211,#167,#168);
#147=AXIS2_PLACEMENT_3D('',#212,#169,#170);
#148=AXIS2_PLACEMENT_3D('',#215,#172,#173);
#149=AXIS2_PLACEMENT_3D('',#216,#174,#175);
#150=AXIS2_PLACEMENT_3D('',#218,#176,#177);
#151=AXIS2_PLACEMENT_3D('',#221,#179,#180);
#152=AXIS2_PLACEMENT_3D('',#222,#181,#182);
#153=AXIS2_PLACEMENT_3D('',#224,#183,#184);
#154=AXIS2_PLACEMENT_3D('',#227,#186,#187);
#155=AXIS2_PLACEMENT_3D('',#228,#188,#189);
#156=AXIS2_PLACEMENT_3D('',#231,#190,#191);
#157=AXIS2_PLACEMENT_3D('',#232,#192,#193);
#158=AXIS2_PLACEMENT_3D('',#235,#195,#196);
#159=AXIS2_PLACEMENT_3D('',#236,#197,#198);
#160=AXIS2_PLACEMENT_3D('',#238,#200,#201);
#161=AXIS2_PLACEMENT_3D('',#240,#203,#204);
#162=AXIS2_PLACEMENT_3D('',#241,#205,#206);
#163=DIRECTION('axis',(0.,0.,1.));
#164=DIRECTION('refdir',(1.,0.,0.));
#165=DIRECTION('center_axis',(0.,0.,-1.));
#166=DIRECTION('ref_axis',(-1.,0.,0.));
#167=DIRECTION('center_axis',(0.,0.,-1.));
#168=DIRECTION('ref_axis',(1.,0.,0.));
#169=DIRECTION('center_axis',(0.,0.,-1.));
#170=DIRECTION('ref_axis',(1.,0.,0.));
#171=DIRECTION('',(0.707106781186546,-8.65956056235491E-17,-0.707106781186549));
#172=DIRECTION('center_axis',(0.,0.,1.));
#173=DIRECTION('ref_axis',(1.,0.,0.));
#174=DIRECTION('center_axis',(0.,0.,1.));
#175=DIRECTION('ref_axis',(1.,0.,0.));
#176=DIRECTION('center_axis',(0.,0.,1.));
#177=DIRECTION('ref_axis',(1.,0.,0.));
#178=DIRECTION('',(-0.707106781186546,-8.65956056235491E-17,0.707106781186549));
#179=DIRECTION('center_axis',(0.,0.,-1.));
#180=DIRECTION('ref_axis',(1.,0.,0.));
#181=DIRECTION('center_axis',(0.,0.,1.));
#182=DIRECTION('ref_axis',(1.,0.,0.));
#183=DIRECTION('center_axis',(0.,0.,1.));
#184=DIRECTION('ref_axis',(1.,0.,0.));
#185=DIRECTION('',(0.707106781186549,8.65956056235495E-17,-0.707106781186546));
#186=DIRECTION('center_axis',(0.,0.,-1.));
#187=DIRECTION('ref_axis',(1.,0.,0.));
#188=DIRECTION('center_axis',(0.,0.,-1.));
#189=DIRECTION('ref_axis',(-1.,0.,0.));
#190=DIRECTION('center_axis',(0.,0.,-1.));
#191=DIRECTION('ref_axis',(1.,0.,0.));
#192=DIRECTION('center_axis',(0.,0.,-1.));
#193=DIRECTION('ref_axis',(1.,0.,0.));
#194=DIRECTION('',(-0.707106781186542,8.65956056235487E-17,0.707106781186553));
#195=DIRECTION('center_axis',(0.,0.,1.));
#196=DIRECTION('ref_axis',(1.,0.,0.));
#197=DIRECTION('center_axis',(0.,0.,1.));
#198=DIRECTION('ref_axis',(1.,0.,0.));
#199=DIRECTION('',(0.,0.,1.));
#200=DIRECTION('center_axis',(0.,0.,1.));
#201=DIRECTION('ref_axis',(1.,0.,0.));
#202=DIRECTION('',(0.,0.,-1.));
#203=DIRECTION('center_axis',(0.,0.,1.));
#204=DIRECTION('ref_axis',(1.,0.,0.));
#205=DIRECTION('center_axis',(0.,0.,1.));
#206=DIRECTION('ref_axis',(1.,0.,0.));
#207=CARTESIAN_POINT('',(0.,0.,0.));
#208=CARTESIAN_POINT('Origin',(0.,0.,-1.));
#209=CARTESIAN_POINT('',(-1.35,1.65327317884893E-16,-0.864999999999999));
#210=CARTESIAN_POINT('',(1.35,-1.65327317884893E-16,-0.864999999999999));
#211=CARTESIAN_POINT('Origin',(0.,0.,-0.864999999999999));
#212=CARTESIAN_POINT('Origin',(0.,0.,-0.864999999999999));
#213=CARTESIAN_POINT('',(1.485,-1.81860049673382E-16,-1.));
#214=CARTESIAN_POINT('',(1.485,-1.81860049673382E-16,-1.));
#215=CARTESIAN_POINT('Origin',(0.,0.,-1.));
#216=CARTESIAN_POINT('Origin',(0.,0.,0.865));
#217=CARTESIAN_POINT('',(-1.35,-1.65327317884893E-16,0.865));
#218=CARTESIAN_POINT('Origin',(0.,0.,0.865));
#219=CARTESIAN_POINT('',(-1.485,-1.81860049673382E-16,1.));
#220=CARTESIAN_POINT('',(-1.35,-1.65327317884893E-16,0.865));
#221=CARTESIAN_POINT('Origin',(0.,0.,1.));
#222=CARTESIAN_POINT('Origin',(0.,0.,-0.91));
#223=CARTESIAN_POINT('',(-2.25,-2.75545529808154E-16,-0.91));
#224=CARTESIAN_POINT('Origin',(0.,0.,-0.91));
#225=CARTESIAN_POINT('',(-2.16,-2.64523708615828E-16,-1.));
#226=CARTESIAN_POINT('',(-2.25,-2.75545529808154E-16,-0.91));
#227=CARTESIAN_POINT('Origin',(0.,0.,-1.));
#228=CARTESIAN_POINT('Origin',(0.,0.,1.));
#229=CARTESIAN_POINT('',(-2.25,2.75545529808154E-16,0.909999999999999));
#230=CARTESIAN_POINT('',(2.25,-2.75545529808154E-16,0.909999999999999));
#231=CARTESIAN_POINT('Origin',(0.,0.,0.909999999999999));
#232=CARTESIAN_POINT('Origin',(0.,0.,0.909999999999999));
#233=CARTESIAN_POINT('',(2.16,-2.64523708615828E-16,1.));
#234=CARTESIAN_POINT('',(2.16,-2.64523708615828E-16,1.));
#235=CARTESIAN_POINT('Origin',(0.,0.,1.));
#236=CARTESIAN_POINT('Origin',(0.,0.,-1.));
#237=CARTESIAN_POINT('',(-1.35,-1.65327317884893E-16,-1.));
#238=CARTESIAN_POINT('Origin',(0.,0.,-1.));
#239=CARTESIAN_POINT('',(-2.25,-2.75545529808154E-16,-1.));
#240=CARTESIAN_POINT('Origin',(0.,0.,-1.));
#241=CARTESIAN_POINT('Origin',(0.,0.,1.));
#242=UNCERTAINTY_MEASURE_WITH_UNIT(LENGTH_MEASURE(0.01),#246,
'DISTANCE_ACCURACY_VALUE',
'Maximum model space distance between geometric entities at asserted c
onnectivities');
#243=UNCERTAINTY_MEASURE_WITH_UNIT(LENGTH_MEASURE(0.01),#246,
'DISTANCE_ACCURACY_VALUE',
'Maximum model space distance between geometric entities at asserted c
onnectivities');
#244=(
GEOMETRIC_REPRESENTATION_CONTEXT(3)
GLOBAL_UNCERTAINTY_ASSIGNED_CONTEXT((#242))
GLOBAL_UNIT_ASSIGNED_CONTEXT((#246,#248,#249))
REPRESENTATION_CONTEXT('','3D')
);
#245=(
GEOMETRIC_REPRESENTATION_CONTEXT(3)
GLOBAL_UNCERTAINTY_ASSIGNED_CONTEXT((#243))
GLOBAL_UNIT_ASSIGNED_CONTEXT((#246,#248,#249))
REPRESENTATION_CONTEXT('','3D')
);
#246=(
LENGTH_UNIT()
NAMED_UNIT(*)
SI_UNIT(.MILLI.,.METRE.)
);
#247=(
LENGTH_UNIT()
NAMED_UNIT(*)
SI_UNIT($,.METRE.)
);
#248=(
NAMED_UNIT(*)
PLANE_ANGLE_UNIT()
SI_UNIT($,.RADIAN.)
);
#249=(
NAMED_UNIT(*)
SI_UNIT($,.STERADIAN.)
SOLID_ANGLE_UNIT()
);
#250=SHAPE_DEFINITION_REPRESENTATION(#251,#252);
#251=PRODUCT_DEFINITION_SHAPE('',$,#254);
#252=SHAPE_REPRESENTATION('',(#144),#244);
#253=PRODUCT_DEFINITION_CONTEXT('part definition',#258,'design');
#254=PRODUCT_DEFINITION('94669A211_Aluminum Unthreaded Spacer',
'M2.5 Spacer',#255,#253);
#255=PRODUCT_DEFINITION_FORMATION('',$,#260);
#256=PRODUCT_RELATED_PRODUCT_CATEGORY('M2.5 Spacer','M2.5 Spacer',(#260));
#257=APPLICATION_PROTOCOL_DEFINITION('international standard',
'automotive_design',2009,#258);
#258=APPLICATION_CONTEXT(
'Core Data for Automotive Mechanical Design Process');
#259=PRODUCT_CONTEXT('part definition',#258,'mechanical');
#260=PRODUCT('94669A211_Aluminum Unthreaded Spacer','M2.5 Spacer',$,(#259));
#261=PRESENTATION_STYLE_ASSIGNMENT((#262));
#262=SURFACE_STYLE_USAGE(.BOTH.,#263);
#263=SURFACE_SIDE_STYLE('',(#264));
#264=SURFACE_STYLE_FILL_AREA(#265);
#265=FILL_AREA_STYLE('Steel - Satin',(#266));
#266=FILL_AREA_STYLE_COLOUR('Steel - Satin',#267);
#267=COLOUR_RGB('Steel - Satin',0.627450980392157,0.627450980392157,0.627450980392157);
ENDSEC;
END-ISO-10303-21;
